# xmcd
#
# Track frame offsets:
#	150
#	13900
#	24682
#	45095
#	58311
#	76101
#	91842
#	107309
#	125258
#	136367
#	150356
#
# Disc length: 2272 seconds
# Revision: 0
# Processed by: cddbd v1.5.2PL0 Copyright (c) Steve Scherf et al.
# Submitted via: dBpowerAMP V12.0
#
DISCID=7708de0b
DTITLE=Katherine Rondeau - Unfortunate Point Of View
DYEAR=2018
DGENRE=Americana
TTITLE0=Coming Soon (If Not Today)
TTITLE1=Wishing
TTITLE2=Natchez Trace
TTITLE3=What's That I Hear
TTITLE4=Unfortunate Point of View
TTITLE5=Tonight I'll Be Staying Here with You
TTITLE6=Why Don't You Love Me
TTITLE7=Orphan Boy
TTITLE8=Don't Need No Preacher
TTITLE9=Let's Work Together
TTITLE10=Urge for Going
EXTD=
EXTT0=
EXTT1=
EXTT2=
EXTT3=
EXTT4=
EXTT5=
EXTT6=
EXTT7=
EXTT8=
EXTT9=
EXTT10=
PLAYORDER=
